<svg width="400" height="622" viewBox="0 0 400 622" fill="none" xmlns="http://www.w3.org/2000/svg">
<g opacity="0.4">
<g clip-path="url(#clip0_11_251)">
<rect width="400" height="622" rx="40" fill="#33404F"/>
<circle opacity="0.1" cx="23" cy="68" r="161" fill="white"/>
<circle opacity="0.1" cx="370.5" cy="28.5" r="55.5" fill="white"/>
<circle opacity="0.1" cx="296.5" cy="513.5" r="43.5" fill="white"/>
<circle opacity="0.1" cx="49" cy="510" r="169" fill="white"/>
<circle opacity="0.1" cx="415" cy="329" r="124" fill="white"/>
<circle opacity="0.1" cx="192" cy="223" r="40" fill="white"/>
<path d="M79.9019 542.927L74.8373 572.648H82.9373L88.0061 542.927H79.9019Z" fill="white"/>
<path d="M68.046 542.96L60.1126 563.229L59.2668 560.169C57.7022 556.481 53.2605 551.185 48.046 547.848L55.3001 572.633L63.871 572.619L76.6272 542.954L68.046 542.96Z" fill="white"/>
<path d="M56.1917 545.087C55.7208 543.277 54.3563 542.737 52.6625 542.673H40.1042L40 543.265C49.7729 545.635 56.2396 551.348 58.9229 558.217L56.1917 545.087Z" fill="white"/>
<path d="M104.423 548.625C107.073 548.583 108.994 549.163 110.485 549.763L111.217 550.106L112.312 543.665C110.708 543.063 108.194 542.417 105.056 542.417C97.052 542.417 91.4103 546.448 91.3666 552.225C91.3145 556.494 95.3853 558.877 98.4603 560.3C101.617 561.758 102.675 562.685 102.66 563.988C102.635 565.977 100.144 566.89 97.8166 566.89C94.5728 566.89 92.8499 566.442 90.1895 565.333L89.1457 564.858L88.0062 571.51C89.902 572.342 93.3999 573.056 97.0312 573.094C105.546 573.094 111.079 569.11 111.137 562.938C111.173 559.56 109.012 556.983 104.331 554.869C101.498 553.49 99.7645 552.573 99.7812 551.181C99.7812 549.946 101.252 548.625 104.423 548.625Z" fill="white"/>
<path d="M133.1 542.96H126.842C124.898 542.96 123.452 543.49 122.598 545.427L110.571 572.665H119.077C119.077 572.665 120.465 569.002 120.779 568.2C121.71 568.2 129.975 568.213 131.152 568.213C131.394 569.25 132.14 572.665 132.14 572.665H139.654L133.1 542.96ZM123.11 562.117C123.777 560.41 126.338 553.81 126.338 553.81C126.294 553.892 126.998 552.092 127.417 550.973L127.963 553.535C127.963 553.535 129.515 560.631 129.84 562.117H123.11Z" fill="white"/>
</g>
</g>
<defs>
<clipPath id="clip0_11_251">
<rect width="400" height="622" rx="40" fill="white"/>
</clipPath>
</defs>
</svg>
