<svg width="194" height="171" viewBox="0 0 194 171" fill="none" xmlns="http://www.w3.org/2000/svg">
<path d="M0.531117 74.0496C3.05184 77.621 6.23971 80.6269 9.7763 82.9344C13.3622 85.2752 17.3195 86.8052 21.3792 87.8113C25.7573 88.8923 30.4955 89.2789 34.6197 86.9881C38.3609 84.9134 41.0788 80.7309 41.3744 76.1201C41.6587 71.7214 39.3996 67.0025 35.6734 65.1773C31.3673 63.0652 26.3638 64.4871 23.0471 68.0086C19.9919 71.2515 18.415 75.8706 18.0435 80.444C17.6872 84.8635 18.6045 89.3995 20.4922 93.3118C24.3055 101.211 32.6031 105.93 40.6921 105.024C41.7421 104.907 42.7845 104.724 43.8118 104.442C44.7746 104.176 45.4455 102.937 45.1347 101.885C44.8125 100.795 43.8345 100.147 42.8035 100.434C42.3865 100.55 41.9658 100.65 41.5412 100.733C41.4465 100.75 41.3517 100.771 41.2569 100.787C41.2342 100.791 40.7642 100.879 41.0826 100.82C41.3972 100.762 40.9347 100.841 40.9082 100.841C40.7642 100.858 40.6239 100.874 40.4799 100.891C39.6232 100.974 38.7589 100.995 37.8985 100.949C37.4664 100.924 37.038 100.883 36.6097 100.833C36.2572 100.791 36.6287 100.841 36.6855 100.845C36.568 100.833 36.4467 100.808 36.3292 100.787C36.0942 100.746 35.8554 100.7 35.6204 100.65C34.7485 100.463 33.8919 100.213 33.0504 99.8975C32.6751 99.7561 32.1672 99.6438 31.8412 99.3944C31.8829 99.4276 32.224 99.5773 31.898 99.4193C31.8108 99.3778 31.7237 99.332 31.6365 99.2904C31.3977 99.1699 31.1589 99.0451 30.9239 98.9121C30.1354 98.4714 29.3735 97.9683 28.6495 97.4112C28.4941 97.2906 28.3387 97.1659 28.1833 97.0412C27.8042 96.7377 28.3955 97.2366 28.1681 97.0287C28.0771 96.9455 27.9824 96.8666 27.8876 96.7793C27.554 96.4799 27.2318 96.1639 26.921 95.8355C26.6102 95.507 26.3069 95.1661 26.0189 94.8127C25.8748 94.6339 25.7308 94.4551 25.5905 94.2722C25.5147 94.1724 25.4389 94.0685 25.3631 93.9646C25.1091 93.6319 25.5602 94.2639 25.3062 93.8856C24.7945 93.1164 24.3169 92.3223 23.8961 91.4866C23.6877 91.0709 23.4906 90.6426 23.3086 90.2144C23.2669 90.1188 23.229 90.0231 23.1873 89.9234C23.1797 89.9067 22.9978 89.4244 23.1115 89.7363C23.2252 90.0439 23.0509 89.5616 23.0433 89.545C22.9978 89.4203 22.9561 89.2997 22.9144 89.175C22.6036 88.2562 22.3496 87.3165 22.1563 86.3603C22.0615 85.8946 21.9819 85.4248 21.9137 84.955C21.8985 84.8511 21.8796 84.743 21.872 84.639C21.9137 85.1296 21.8947 84.8261 21.8834 84.718C21.8568 84.427 21.8265 84.1401 21.8075 83.8491C21.7393 82.8721 21.7355 81.8909 21.7924 80.918C21.8075 80.681 21.8265 80.444 21.8455 80.207C21.8568 80.0865 21.8871 79.309 21.8758 79.8952C21.8834 79.4129 22.0274 78.8849 22.126 78.4151C22.3231 77.4464 22.5884 76.4943 22.922 75.5713C22.9599 75.4715 22.994 75.3676 23.0357 75.2678C22.8613 75.6752 22.9864 75.4008 23.0205 75.3135C23.1267 75.0682 23.229 74.8188 23.3389 74.5776C23.5398 74.1411 23.7597 73.7129 23.9947 73.3012C24.2259 72.8896 24.4723 72.4739 24.749 72.0997C24.4572 72.4905 24.8931 71.9209 24.9651 71.8295C25.1432 71.6049 25.3252 71.3887 25.5147 71.1767C25.8066 70.8524 26.1136 70.5406 26.4358 70.2537C26.5268 70.1747 26.7429 69.9128 26.4586 70.2288C26.5192 70.1581 26.6291 70.0916 26.6974 70.0375C26.8983 69.8795 27.1068 69.7299 27.319 69.5927C27.5123 69.4638 27.7095 69.3432 27.9104 69.2309C28.0127 69.1727 28.6344 68.8734 28.2136 69.0605C28.6609 68.8651 29.112 68.6988 29.5782 68.5699C29.7981 68.5075 30.0179 68.4576 30.2416 68.4119C30.3325 68.3953 30.4424 68.362 30.5372 68.3579C30.0937 68.3786 30.4387 68.3745 30.5562 68.362C31.03 68.3163 31.5038 68.3038 31.9776 68.3371C32.0762 68.3454 32.1747 68.3579 32.2733 68.362C32.7547 68.3953 31.989 68.2955 32.2847 68.362C32.5045 68.4077 32.7244 68.4493 32.9404 68.5075C33.1338 68.5574 33.3233 68.6198 33.5128 68.6863C33.6303 68.7279 33.744 68.7819 33.8615 68.8235C33.9904 68.8776 33.9563 68.8609 33.7554 68.7695C33.8236 68.8027 33.8919 68.836 33.9601 68.8692C34.3202 69.0563 34.6689 69.2767 34.9987 69.5261C35.0215 69.5428 35.3702 69.8421 35.1314 69.6259C34.8926 69.4097 35.2337 69.7257 35.2527 69.7423C35.4233 69.9045 35.5825 70.0708 35.7417 70.2496C35.8667 70.3909 35.988 70.5364 36.1018 70.6861C36.1207 70.7111 36.3785 71.0977 36.2041 70.8233C36.0297 70.5448 36.2799 70.948 36.2951 70.9688C36.5263 71.3347 36.731 71.7172 36.9129 72.1163C36.9622 72.2286 37.0077 72.3408 37.057 72.4531C37.1859 72.7317 36.8978 71.975 37.0494 72.4365C37.1101 72.6236 37.1745 72.8065 37.2313 72.9977C37.3716 73.4717 37.4664 73.954 37.5498 74.4446C37.5839 74.6358 37.4967 74.6857 37.5384 74.3365C37.5308 74.4155 37.5573 74.5485 37.5649 74.6317C37.5839 74.8562 37.5915 75.0765 37.5952 75.3011C37.599 75.5256 37.5952 75.7459 37.5839 75.9704C37.5801 76.0702 37.5725 76.17 37.5649 76.2656C37.5573 76.3654 37.5498 76.4652 37.5384 76.5608C37.5498 76.4735 37.5573 76.3904 37.5687 76.303C37.6256 76.6855 37.3906 77.2884 37.2882 77.6584C37.2276 77.8788 37.1593 78.0991 37.0873 78.3153C37.0456 78.4359 36.9584 78.781 37.0949 78.3195C37.0532 78.465 36.9774 78.6064 36.9205 78.7394C36.7462 79.1344 36.549 79.5127 36.3368 79.8827C36.2231 80.0781 36.1018 80.2694 35.9805 80.4565C35.7606 80.7974 36.0184 80.4274 36.0222 80.4066C36.0146 80.4773 35.7947 80.7101 35.753 80.7642C35.4763 81.1175 35.1807 81.4543 34.8698 81.7703C34.7296 81.9116 34.5893 82.0489 34.4453 82.1819C34.4301 82.1944 34.07 82.5187 34.305 82.3108C34.5211 82.1237 34.142 82.4397 34.0966 82.4729C33.7478 82.7432 33.3877 82.9885 33.0162 83.213C32.8305 83.3252 32.641 83.4292 32.4477 83.529C32.3529 83.5788 32.2543 83.6246 32.1596 83.6703C32.5614 83.4666 32.0876 83.6953 32.0307 83.7202C31.591 83.899 31.1437 84.0487 30.685 84.1692C30.4841 84.2233 30.2795 84.2732 30.0748 84.3147C29.9459 84.3397 29.817 84.3646 29.6881 84.3896C29.6123 84.4021 29.5327 84.4187 29.4569 84.427C29.6768 84.3937 29.7147 84.3896 29.5706 84.4062C28.5927 84.4977 27.6261 84.5476 26.6405 84.4935C26.1591 84.4644 25.6777 84.4187 25.2001 84.3605C25.094 84.348 24.9878 84.3314 24.8817 84.3189C25.2797 84.373 24.9878 84.3355 24.9082 84.3189C24.6429 84.2732 24.3776 84.2274 24.1122 84.1775C22.2093 83.8117 20.3254 83.2795 18.4794 82.6559C17.5887 82.3565 16.7055 82.0114 15.8412 81.6289C15.7237 81.579 15.6062 81.525 15.4925 81.4709C15.5531 81.5 15.8526 81.6414 15.5266 81.4876C15.3181 81.3878 15.1096 81.288 14.9049 81.1841C14.469 80.9679 14.0369 80.7392 13.6086 80.4981C11.9445 79.5709 10.3525 78.4899 8.85519 77.2634C8.76043 77.1845 8.31314 76.8019 8.63913 77.0847C8.44202 76.9142 8.24491 76.7396 8.0478 76.565C7.69907 76.249 7.35413 75.9247 7.01677 75.5921C6.30415 74.8895 5.61805 74.1536 4.96987 73.3802C4.352 72.6485 3.76826 71.8877 3.21105 71.0977C2.60076 70.2329 1.16414 70.341 0.531117 71.0977C-0.234576 72.0249 -0.117069 73.1266 0.531117 74.0496Z" fill="#33404F"/>
<path d="M185.173 77.0389H170.064C167.57 70.578 163.961 64.6243 159.473 59.3816V16.7869C145.27 16.7869 132.996 25.8463 127.193 38.9844C121.355 37.3629 115.18 36.4856 108.79 36.4856C72.7641 36.4856 43.5578 64.1462 43.5578 98.2677C43.5578 115.493 51.0025 131.067 63.0072 142.272V168.203H89.1393V157.193C95.3407 159.048 101.94 160.05 108.79 160.05C115.639 160.05 122.239 159.048 128.44 157.193V167.575H154.572V142.268C161.376 135.915 166.721 128.161 170.068 119.496H185.177C188.945 119.496 192 116.145 192 112.013V84.5185C191.996 80.3858 188.941 77.0389 185.173 77.0389Z" fill="white" stroke="#33404F" stroke-width="4" stroke-miterlimit="10"/>
<path d="M142.685 84.7056C144.969 84.7056 146.82 82.6747 146.82 80.1696C146.82 77.6645 144.969 75.6337 142.685 75.6337C140.401 75.6337 138.549 77.6645 138.549 80.1696C138.549 82.6747 140.401 84.7056 142.685 84.7056Z" fill="#33404F"/>
<path d="M142.685 110.583C148.737 110.583 153.643 107.826 153.643 104.425C153.643 101.024 148.737 98.2677 142.685 98.2677C136.633 98.2677 131.726 101.024 131.726 104.425C131.726 107.826 136.633 110.583 142.685 110.583Z" fill="#00DDA3"/>
<path d="M87.8846 56.8413C101.224 49.5821 113.869 49.9438 125.919 56.8413" stroke="#33404F" stroke-width="4" stroke-miterlimit="10" stroke-linecap="round"/>
<path d="M106.902 42.7279C117.156 42.7279 125.468 33.6107 125.468 22.364C125.468 11.1173 117.156 2 106.902 2C96.6481 2 88.3357 11.1173 88.3357 22.364C88.3357 33.6107 96.6481 42.7279 106.902 42.7279Z" fill="#00DDA3" stroke="#33404F" stroke-width="4" stroke-miterlimit="10"/>
<path d="M106.902 33.2901C112.404 33.2901 116.864 28.3983 116.864 22.364C116.864 16.3296 112.404 11.4378 106.902 11.4378C101.4 11.4378 96.9403 16.3296 96.9403 22.364C96.9403 28.3983 101.4 33.2901 106.902 33.2901Z" fill="#00DDA3" stroke="#33404F" stroke-width="4" stroke-miterlimit="10"/>
<path d="M82.3125 152.449H46.5448C45.7071 152.449 45.0286 151.705 45.0286 150.786V146.25C45.0286 145.331 45.7071 144.587 46.5448 144.587H82.3125C83.1502 144.587 83.8288 145.331 83.8288 146.25V150.786C83.8288 151.705 83.1465 152.449 82.3125 152.449Z" fill="#33404F"/>
<path d="M70.3722 161.724H34.6045C33.7668 161.724 33.0883 160.98 33.0883 160.061V155.525C33.0883 154.607 33.7668 153.862 34.6045 153.862H70.3722C71.2099 153.862 71.8885 154.607 71.8885 155.525V160.061C71.8885 160.98 71.2099 161.724 70.3722 161.724Z" fill="#00DDA3" stroke="#33404F" stroke-width="4" stroke-miterlimit="10"/>
<path d="M82.3125 171H46.5448C45.7071 171 45.0286 170.256 45.0286 169.337V164.801C45.0286 163.882 45.7071 163.138 46.5448 163.138H82.3125C83.1502 163.138 83.8288 163.882 83.8288 164.801V169.337C83.8288 170.256 83.1465 171 82.3125 171Z" fill="#33404F"/>
</svg>
